<svg version="1.1" id="Layer_1" xmlns="http://www.w3.org/2000/svg" xmlns:xlink="http://www.w3.org/1999/xlink" x="0px" y="0px"
	 width="100%" viewBox="0 0 1024 1024" enable-background="new 0 0 1024 1024" xml:space="preserve">
<path fill="#09131F" opacity="1.000000" stroke="none" 
	d="
M444.000000,1025.000000 
	C296.000000,1025.000000 148.500000,1025.000000 1.000000,1025.000000 
	C1.000000,683.666687 1.000000,342.333344 1.000000,1.000000 
	C342.333344,1.000000 683.666687,1.000000 1025.000000,1.000000 
	C1025.000000,342.333344 1025.000000,683.666687 1025.000000,1025.000000 
	C831.500000,1025.000000 638.000000,1025.000000 444.000000,1025.000000 
M838.861084,603.301697 
	C837.667664,602.873535 836.474121,602.072510 835.280762,602.072937 
	C815.850952,602.080017 796.421204,602.188660 777.149536,601.485962 
	C778.264343,600.989685 779.370361,600.088440 780.495422,600.064087 
	C786.903015,599.925171 793.323486,600.187927 799.722046,599.910095 
	C802.753906,599.778442 805.746826,598.749756 808.757446,598.127380 
	C808.771118,597.442810 808.784790,596.758240 808.798523,596.073608 
	C804.691956,594.716797 800.651062,592.512634 796.464539,592.188171 
	C788.900574,591.601990 781.737305,590.617920 775.108826,584.490601 
	C769.963867,589.503235 764.891174,594.445374 759.802917,599.402710 
	C756.849976,600.139893 753.421326,600.995850 749.328186,602.316528 
	C748.890686,604.184570 748.095337,606.048279 748.072937,607.921265 
	C747.909485,621.570923 747.909485,635.222534 747.830383,648.873352 
	C747.823364,650.089294 747.621582,651.304016 747.510315,652.519348 
	C747.063538,652.801514 746.616821,653.083679 746.170105,653.365845 
	C729.277893,636.161743 712.385742,618.957642 694.920593,601.169983 
	C694.801331,603.358704 694.669495,604.658203 694.668640,605.957825 
	C694.653259,630.595886 694.781799,655.235168 694.545471,679.871033 
	C694.496155,685.011047 696.903625,685.587158 700.969055,685.436951 
	C704.895691,685.291870 708.097534,685.376831 707.966125,679.722534 
	C707.641174,665.746155 707.856201,651.756958 707.882507,637.772949 
	C707.884766,636.570679 708.096313,635.368835 708.277588,633.463318 
	C724.484558,649.674011 740.108459,665.327698 755.778015,680.935547 
	C757.397949,682.549072 759.289734,683.889465 761.621704,685.731689 
	C765.219421,687.310425 768.063354,686.018250 770.921753,683.708130 
	C772.174866,682.695312 774.127625,682.548340 775.993713,682.739258 
	C778.008362,683.636841 780.014771,685.290710 782.039001,685.312866 
	C798.998840,685.498535 815.961975,685.367798 832.924072,685.369873 
	C839.206299,685.370605 839.459473,685.174133 839.540588,679.036377 
	C839.627563,672.453796 839.545837,672.382751 832.962769,672.281494 
	C831.307129,672.256042 829.653137,672.120972 828.090393,671.336426 
	C829.025391,670.066345 829.960388,668.796326 830.877380,667.550781 
	C823.664734,659.320435 823.437683,657.905273 828.456116,649.726135 
	C829.014343,649.153137 829.572510,648.580139 830.759338,648.146179 
	C832.935120,650.196106 834.781128,649.841797 835.382263,646.956116 
	C836.246582,642.806702 837.060425,638.742249 833.556091,634.902344 
	C827.664795,628.446655 828.014404,626.177002 835.249695,620.957642 
	C837.640747,619.232788 837.858276,617.469666 837.399597,614.640930 
	C837.894104,614.328308 838.388672,614.015686 838.945312,614.419312 
	C839.606506,615.058105 840.267700,615.696899 840.928955,616.335693 
	C842.539673,613.204529 845.188416,610.168396 845.486145,606.916931 
	C845.822937,603.239075 841.849426,604.151306 838.861084,603.301697 
M658.340759,345.091858 
	C650.752991,338.185608 639.519470,336.811646 631.095520,341.759613 
	C622.229553,346.967224 618.304749,356.222351 620.541931,366.537384 
	C620.783508,367.651398 620.779480,368.818726 620.462463,369.973389 
	C620.462463,369.973389 620.037476,370.015015 619.503723,369.601593 
	C618.475159,368.299103 617.023621,367.145599 616.501892,365.664581 
	C615.228394,362.049347 611.309937,358.711609 615.155823,354.355469 
	C619.034851,349.961761 622.792786,345.451385 626.384644,340.822113 
	C627.113647,339.882568 626.864807,338.184418 627.066772,336.835968 
	C625.666199,336.758484 623.913940,336.107910 622.931091,336.711090 
	C619.987427,338.517670 617.224976,340.677002 614.611755,342.951447 
	C610.500977,346.529297 606.552185,350.307800 610.731018,356.331604 
	C603.475769,358.442932 596.896423,359.634674 591.821594,353.318207 
	C590.048096,355.416901 588.534302,357.208191 586.852661,358.095734 
	C586.835327,355.304291 586.827942,352.512756 586.797729,349.721436 
	C586.772339,347.374695 586.094299,345.764160 583.185303,345.949341 
	C586.217285,338.934296 588.619080,347.992889 591.682617,346.128326 
	C591.737610,339.112122 584.613708,338.393768 580.998352,334.876221 
	C583.471191,329.483765 582.171753,326.528870 576.664001,325.173737 
	C573.635681,324.428680 570.443359,324.322296 567.316589,324.012543 
	C563.722107,323.656403 561.100281,324.414764 559.390503,328.353577 
	C558.688843,329.970032 554.593933,331.740173 553.105286,331.072174 
	C549.208923,329.323883 547.322449,331.140045 544.056580,334.323578 
	C546.743469,334.951202 548.490051,335.338135 550.225281,335.770416 
	C551.950378,336.200226 553.664124,336.675598 555.382812,337.130981 
	C554.566650,338.609314 553.652222,340.042938 552.955322,341.575439 
	C551.571838,344.617737 550.240540,347.688110 549.026306,350.800934 
	C548.493469,352.166809 548.611145,353.845032 547.900635,355.073212 
	C544.257751,361.370026 540.668701,367.718689 536.624084,373.756714 
	C532.256287,380.277283 528.182251,387.890045 517.963684,384.063690 
	C517.825073,384.011749 517.615295,384.049774 517.474304,384.118652 
	C513.282104,386.166565 509.653046,384.057343 506.114105,382.349365 
	C502.444916,380.578461 499.119965,378.067474 495.401367,376.433350 
	C491.795563,374.848846 487.919098,371.884491 484.039368,376.224152 
	C483.669891,376.637421 482.775696,376.885559 482.210510,376.774719 
	C472.356567,374.842499 462.420990,373.211823 452.709045,370.714752 
	C447.083069,369.268280 436.957642,370.825684 434.193268,374.623718 
	C429.213989,381.464722 422.202667,385.181580 414.128754,386.992798 
	C410.650604,387.773041 408.155914,389.254974 408.292908,393.163483 
	C408.414581,396.634491 408.493103,400.165100 409.204224,403.540070 
	C409.842499,406.569427 409.253754,407.694366 406.077972,408.128662 
	C402.158142,408.664734 398.003296,409.214600 394.528534,410.930206 
	C385.999542,415.141327 377.911194,420.240967 369.409851,424.514282 
	C366.612732,425.920288 366.426453,427.670654 365.870605,430.243042 
	C364.218384,437.889221 361.980835,445.408905 360.008881,452.839233 
	C351.593109,451.501465 350.628479,452.776337 351.793365,460.289551 
	C353.025055,468.233551 356.489685,476.601288 348.838104,483.524658 
	C348.209015,484.093842 348.161316,485.363556 347.953217,486.331360 
	C345.150970,499.364136 346.482056,512.470215 348.921265,525.222900 
	C350.318207,532.526367 353.513306,540.086487 361.299591,543.960388 
	C362.391235,544.503479 363.287292,546.035400 363.658325,547.291443 
	C364.214264,549.173340 364.224884,551.216431 364.469818,553.210266 
	C362.740601,554.618835 360.902740,556.115845 360.101562,556.768433 
	C361.979980,559.307495 363.356140,561.600830 365.181427,563.451050 
	C366.085754,564.367676 367.854401,564.961487 369.167450,564.860718 
	C379.216675,564.088867 382.980225,559.625610 383.400116,549.760254 
	C383.494751,547.536743 385.856567,544.764526 387.935730,543.436157 
	C390.458191,541.824646 402.215210,546.639587 404.292175,549.063660 
	C405.169189,550.087280 406.858215,550.415161 408.371399,551.153564 
	C408.199585,547.458252 408.080475,544.895996 407.955627,542.210693 
	C402.219971,539.189026 401.861328,538.109985 404.870667,532.790894 
	C406.411957,534.188965 408.006348,535.635254 410.395905,537.802795 
	C412.227905,533.789368 413.614960,530.678101 415.062073,527.595154 
	C418.334320,520.623779 420.331573,512.487671 425.273621,507.017212 
	C430.802216,500.897430 434.614655,495.386505 433.301025,486.463867 
	C439.138794,481.148163 444.976532,475.832428 451.086121,470.269226 
	C456.561584,475.516449 462.723602,481.421600 469.128479,487.918427 
	C475.431366,494.030121 481.469177,500.454865 488.154114,506.115326 
	C491.279327,508.761566 493.338806,511.260956 494.624786,515.266541 
	C498.995117,528.879211 514.585388,534.754578 527.607849,527.740051 
	C536.473206,522.328186 539.217773,513.767578 539.253540,503.575958 
	C552.079773,503.575958 564.386597,503.622894 576.692566,503.538666 
	C579.335144,503.520569 582.313721,503.684265 584.509155,502.548950 
	C586.306152,501.619690 588.039368,498.921997 588.131104,496.931366 
	C588.190063,495.651520 585.371582,493.348724 583.585938,493.052338 
	C579.352722,492.349640 574.967468,492.523163 570.641785,492.430511 
	C567.234497,492.357483 563.824524,492.415833 559.442322,492.415833 
	C564.845703,486.379456 569.445557,481.240784 574.697693,475.737244 
	C578.061646,472.895294 581.279175,473.130554 584.414551,476.145020 
	C587.533997,479.144165 590.769470,482.026672 593.809509,485.103149 
	C596.776184,488.105347 599.396606,487.985016 602.322083,484.991089 
	C614.071716,472.966614 625.867371,460.986450 637.729553,449.073090 
	C640.766235,446.023346 641.897644,442.568207 641.848877,438.295471 
	C641.695068,424.813721 641.823608,411.328857 641.819336,397.845215 
	C641.817322,391.407837 639.637085,389.727722 632.529236,390.493347 
	C631.241699,387.782990 629.989990,385.054718 628.649658,382.370697 
	C628.080139,381.230011 627.324890,380.181976 627.343628,379.022095 
	C633.317322,382.031067 639.444824,384.365479 646.318665,382.944397 
	C655.473450,381.051758 661.667847,375.623779 664.023560,366.621063 
	C666.048218,358.883636 665.463562,351.399048 658.340759,345.091858 
M498.837341,601.143250 
	C496.596863,594.854126 490.679535,594.276367 485.529602,593.258728 
	C480.530212,592.270813 477.605957,590.617004 477.823242,584.959045 
	C477.879089,583.505371 476.135284,580.975098 474.789368,580.634644 
	C464.033508,577.913513 453.248566,578.042542 442.701508,581.783813 
	C441.467560,582.221436 440.583405,583.730530 439.613739,584.811707 
	C436.900574,587.836609 434.390808,591.064941 431.489716,593.894043 
	C428.927765,596.392395 426.092560,598.685486 423.094299,600.632263 
	C421.413208,601.723816 418.862610,602.872864 417.212372,602.359863 
	C411.710815,600.649841 406.285431,598.513000 401.111237,595.969421 
	C390.319611,590.664185 379.010468,591.244019 367.595825,592.321960 
	C361.795258,592.869751 358.310913,596.870361 354.611633,600.782349 
	C350.524414,605.104614 345.615234,605.277100 342.450439,601.723877 
	C338.718109,597.533447 335.107483,597.841370 330.941956,602.365906 
	C328.295563,602.201050 325.649170,602.036194 323.025269,601.129150 
	C323.703552,598.698425 323.863220,596.845947 321.608002,594.569458 
	C318.123199,591.051880 314.648346,588.631897 309.531403,588.938599 
	C308.112427,589.023621 306.233582,588.851746 305.274963,587.999695 
	C299.004456,582.426758 291.715393,584.763977 284.620361,584.794739 
	C277.066650,584.827576 270.191101,590.675354 262.285522,587.246582 
	C261.980682,587.114319 261.098083,587.502808 261.010101,587.802673 
	C259.481750,593.013306 252.342728,595.470032 253.027344,602.165771 
	C251.363876,602.109924 249.677689,602.209229 248.041199,601.969299 
	C243.051468,601.237854 241.262146,603.124695 241.470825,608.283813 
	C241.854095,617.759460 241.600784,627.260925 241.608704,636.751587 
	C241.613190,642.147339 241.609512,647.543030 241.609512,653.544678 
	C223.698608,635.988037 206.434494,619.065430 189.170776,602.143188 
	C189.029922,602.344299 188.690964,602.602356 188.689865,602.861877 
	C188.578964,629.165588 188.446274,655.469604 188.565475,681.772461 
	C188.570663,682.921814 190.733414,684.419434 192.195923,685.095215 
	C193.449661,685.674561 195.145645,685.246826 196.637177,685.371155 
	C200.465302,685.690125 202.029984,684.074768 201.954758,680.147461 
	C201.773026,670.660034 201.875214,661.167175 201.867340,651.676514 
	C201.862717,646.100708 201.866516,640.524902 201.866516,634.493042 
	C209.334015,641.773926 216.290512,648.578674 223.271683,655.358093 
	C233.767792,665.550903 244.281174,675.725891 255.502777,686.083374 
	C258.501282,689.348755 261.499756,692.614075 264.118347,695.465698 
	C267.128845,694.970642 269.515686,694.405396 271.931549,694.221130 
	C275.652496,693.937317 279.394531,693.941528 283.125427,693.773865 
	C286.739105,693.611633 290.476471,692.717834 293.927551,693.371094 
	C297.604279,694.066956 300.739960,698.729248 304.930939,694.280823 
	C305.184662,694.011475 306.441315,694.705261 307.238220,694.925842 
	C309.152222,695.455688 311.135712,695.803101 312.975342,696.520935 
	C320.283783,699.372864 321.548340,688.952026 327.980194,689.684082 
	C328.521942,689.745789 329.325073,687.771484 329.943726,686.706482 
	C330.089905,686.454773 329.980682,686.054688 330.464111,685.341248 
	C331.166199,684.945557 331.868286,684.549866 332.778687,684.937927 
	C335.373108,689.694580 336.690247,689.815552 340.146973,685.798828 
	C341.117310,684.671326 342.394958,683.808289 343.160217,683.145569 
	C346.339447,687.603516 349.086700,691.509277 351.890350,695.374146 
	C355.787720,700.746765 360.654510,702.566345 366.942078,699.544373 
	C373.862885,696.218140 380.880554,693.090271 387.743561,689.651550 
	C388.532837,689.256042 388.601868,687.423157 389.731140,686.029724 
	C390.487274,686.027405 391.243408,686.025085 392.001038,686.840698 
	C391.724579,689.321289 392.529175,690.557617 395.224365,691.386780 
	C399.139740,692.591370 402.769745,694.723389 406.521454,696.459961 
	C406.376434,697.519714 406.794647,697.513550 406.979279,697.302795 
	C413.451111,689.912537 422.346405,688.525085 431.362366,687.497803 
	C432.053436,687.419006 432.811340,688.023499 433.552185,688.267944 
	C436.433350,689.218445 439.438629,689.892883 442.179993,691.146301 
	C447.682129,693.661926 446.536774,687.588623 448.945923,686.238342 
	C450.126892,685.576416 452.436066,684.879700 452.973999,685.430298 
	C459.361755,691.968933 464.155487,692.003357 471.661194,684.730957 
	C472.068726,682.863159 472.823242,680.996643 472.830261,679.127380 
	C472.902740,659.846008 472.854370,640.564148 472.840057,621.282471 
	C472.838623,619.370117 472.839844,617.457825 472.839844,615.161560 
	C481.082001,615.161560 488.551331,615.183411 496.020416,615.149109 
	C498.437408,615.138000 501.863983,615.737244 501.637085,612.122559 
	C501.419373,608.654541 504.563568,603.979675 498.837341,601.143250 
M598.313171,636.755188 
	C598.183289,638.747803 597.929382,640.741333 597.942932,642.732971 
	C598.064697,660.514954 605.763733,674.024109 621.797485,681.746948 
	C637.377502,689.251343 652.890381,687.730774 666.376953,676.822205 
	C680.487976,665.408386 685.087952,649.986023 680.905212,632.420654 
	C676.421631,613.591980 658.799927,600.754761 639.029663,601.158691 
	C618.715515,601.573730 602.711487,615.298462 598.313171,636.755188 
M527.680603,615.526978 
	C527.678467,612.694763 527.486145,609.847168 527.714844,607.033691 
	C528.153503,601.637329 524.697327,601.787537 520.943542,601.776123 
	C517.194092,601.764771 514.037415,601.545898 514.247192,607.015259 
	C514.598145,616.164429 514.363342,625.336365 514.360718,634.498718 
	C514.356323,649.492004 514.247131,664.486572 514.443542,679.477112 
	C514.468994,681.417603 515.577881,684.498535 516.988159,685.070557 
	C523.879517,687.865784 527.885132,684.839722 527.856323,677.444763 
	C527.834900,671.947144 527.788330,666.449707 527.767029,660.952148 
	C527.753113,657.358521 527.764404,653.764709 527.764404,650.194702 
	C542.601807,650.194702 556.706726,650.194702 571.381470,650.194702 
	C571.381470,652.631531 571.368103,654.754578 571.383972,656.877380 
	C571.443787,664.873474 571.612488,672.870605 571.528992,680.865112 
	C571.496277,683.993713 572.496704,685.575562 575.787598,685.419067 
	C577.445190,685.340271 579.115784,685.586304 580.779785,685.575439 
	C583.602539,685.557007 584.976868,684.229187 584.970520,681.251526 
	C584.917053,656.096069 584.967163,630.940186 584.825806,605.785339 
	C584.818542,604.495361 583.619934,602.450256 582.510742,602.051575 
	C575.186462,599.419434 571.234802,602.303345 571.299194,609.896118 
	C571.351501,616.059753 571.410217,622.223389 571.450867,628.387085 
	C571.470215,631.321167 571.454163,634.255493 571.454163,637.296875 
	C556.578796,637.296875 542.363770,637.296875 527.684753,637.296875 
	C527.684753,630.120850 527.684753,623.319946 527.680603,615.526978 
z"/>
<path fill="#0B1523" opacity="1.000000" stroke="none" 
	d="
M433.018494,487.073059 
	C434.614655,495.386505 430.802216,500.897430 425.273621,507.017212 
	C420.331573,512.487671 418.334320,520.623779 415.062073,527.595154 
	C413.614960,530.678101 412.227905,533.789368 410.395905,537.802795 
	C408.006348,535.635254 406.411957,534.188965 404.870667,532.790894 
	C401.861328,538.109985 402.219971,539.189026 407.955627,542.210693 
	C408.080475,544.895996 408.199585,547.458252 408.371399,551.153564 
	C406.858215,550.415161 405.169189,550.087280 404.292175,549.063660 
	C402.215210,546.639587 390.458191,541.824646 387.935730,543.436157 
	C385.856567,544.764526 383.494751,547.536743 383.400116,549.760254 
	C382.980225,559.625610 379.216675,564.088867 369.167450,564.860718 
	C367.854401,564.961487 366.085754,564.367676 365.181427,563.451050 
	C363.356140,561.600830 361.979980,559.307495 360.101562,556.768433 
	C360.902740,556.115845 362.740601,554.618835 364.469818,553.210266 
	C364.224884,551.216431 364.214264,549.173340 363.658325,547.291443 
	C363.287292,546.035400 362.391235,544.503479 361.299591,543.960388 
	C353.513306,540.086487 350.318207,532.526367 348.921265,525.222900 
	C346.482056,512.470215 345.150970,499.364136 347.953217,486.331360 
	C348.161316,485.363556 348.209015,484.093842 348.838104,483.524658 
	C356.489685,476.601288 353.025055,468.233551 351.793365,460.289551 
	C350.628479,452.776337 351.593109,451.501465 360.008881,452.839233 
	C361.980835,445.408905 364.218384,437.889221 365.870605,430.243042 
	C366.426453,427.670654 366.612732,425.920288 369.409851,424.514282 
	C377.911194,420.240967 385.999542,415.141327 394.528534,410.930206 
	C398.003296,409.214600 402.158142,408.664734 406.077972,408.128662 
	C409.253754,407.694366 409.842499,406.569427 409.204224,403.540070 
	C408.493103,400.165100 408.414581,396.634491 408.292908,393.163483 
	C408.155914,389.254974 410.650604,387.773041 414.128754,386.992798 
	C422.202667,385.181580 429.213989,381.464722 434.193268,374.623718 
	C436.957642,370.825684 447.083069,369.268280 452.709045,370.714752 
	C462.420990,373.211823 472.356567,374.842499 482.210510,376.774719 
	C482.775696,376.885559 483.669891,376.637421 484.039368,376.224152 
	C487.919098,371.884491 491.795563,374.848846 495.401367,376.433350 
	C499.119965,378.067474 502.444916,380.578461 506.114105,382.349365 
	C509.653046,384.057343 513.282104,386.166565 517.474304,384.118652 
	C517.615295,384.049774 517.825073,384.011749 517.963684,384.063690 
	C528.182251,387.890045 532.256287,380.277283 536.624084,373.756714 
	C540.668701,367.718689 544.257751,361.370026 547.900635,355.073212 
	C548.611145,353.845032 548.493469,352.166809 549.026306,350.800934 
	C550.240540,347.688110 551.571838,344.617737 552.955322,341.575439 
	C553.652222,340.042938 554.566650,338.609314 555.382812,337.130981 
	C553.664124,336.675598 551.950378,336.200226 550.225281,335.770416 
	C548.490051,335.338135 546.743469,334.951202 544.056580,334.323578 
	C547.322449,331.140045 549.208923,329.323883 553.105286,331.072174 
	C554.593933,331.740173 558.688843,329.970032 559.390503,328.353577 
	C561.100281,324.414764 563.722107,323.656403 567.316589,324.012543 
	C570.443359,324.322296 573.635681,324.428680 576.664001,325.173737 
	C582.171753,326.528870 583.471191,329.483765 580.998352,334.876221 
	C584.613708,338.393768 591.737610,339.112122 591.682617,346.128326 
	C588.619080,347.992889 586.217285,338.934296 583.033875,346.572693 
	C573.738159,356.174744 564.593811,365.153442 555.048706,374.105133 
	C552.521606,375.641449 549.525635,376.814087 548.584290,378.909668 
	C547.986816,380.239716 550.159180,383.173859 551.609863,384.967834 
	C553.219299,386.958130 555.420959,388.469543 557.210754,390.493103 
	C546.374695,401.866302 535.692566,412.935883 524.625610,424.003418 
	C523.470764,424.010956 522.700684,424.020447 521.635498,423.879883 
	C514.670288,417.445068 508.000183,411.160339 501.156708,404.581024 
	C498.326263,401.508942 495.669189,398.731476 492.964661,395.620300 
	C491.637482,394.183228 490.357788,393.079895 488.786194,391.812317 
	C485.660492,389.202850 482.826599,386.757660 479.797668,384.006958 
	C470.919220,383.470001 462.236542,383.191071 453.551605,383.062195 
	C452.354218,383.044403 451.145813,383.770264 449.597260,384.252472 
	C447.822937,384.734711 445.931641,384.662018 445.038696,385.570587 
	C438.498260,392.225708 430.919434,397.438660 431.217773,409.209808 
	C431.476257,419.410583 436.746124,424.890717 443.036438,430.727417 
	C443.710266,431.352600 444.780640,431.796814 445.702637,431.868622 
	C452.388489,432.389343 459.026154,432.785004 463.453247,426.091003 
	C464.527771,424.466309 466.350098,423.356628 467.616333,421.833649 
	C469.607452,419.438843 471.583984,419.128418 473.960815,421.686279 
	C484.663330,432.349884 495.228363,442.726013 505.951172,453.401398 
	C513.478394,460.894806 520.828735,468.108856 528.234070,475.265839 
	C529.660339,476.644287 531.198669,477.963287 532.868530,479.020386 
	C535.643005,480.776886 538.275330,480.365631 540.363953,477.761322 
	C542.407288,475.213593 541.854187,472.995270 539.535889,470.809021 
	C532.173523,463.865753 524.902832,456.825256 517.409912,449.526337 
	C505.458069,437.861633 493.693024,426.492981 481.756348,414.837952 
	C479.400391,412.496674 476.998657,410.624817 475.079681,408.346405 
	C471.700928,404.334808 468.888123,405.142822 465.672913,408.571533 
	C462.257812,412.213348 458.563293,415.600098 454.898956,418.999207 
	C451.112152,422.511932 444.063171,420.582581 442.983612,415.420654 
	C440.877106,405.348114 444.474304,394.236084 457.525208,395.080811 
	C462.504608,395.403107 467.541321,394.902222 472.509949,395.300079 
	C474.606445,395.467926 476.942047,396.582001 478.567017,397.970459 
	C483.478271,402.166779 488.094574,406.708344 492.976379,411.415588 
	C501.336334,419.465515 509.421967,427.352356 517.799805,434.915497 
	C523.178040,439.770721 525.384277,439.464294 530.377258,434.289764 
	C543.175171,421.026672 555.980408,407.770538 568.725586,394.457001 
	C570.640808,392.456390 572.249023,390.161896 574.166382,387.710938 
	C582.388306,381.054688 589.197571,374.083954 586.858826,362.472321 
	C586.636902,361.370270 586.953796,360.159698 587.020569,358.999512 
	C588.534302,357.208191 590.048096,355.416901 591.821594,353.318207 
	C596.896423,359.634674 603.475769,358.442932 610.731018,356.331604 
	C606.552185,350.307800 610.500977,346.529297 614.611755,342.951447 
	C617.224976,340.677002 619.987427,338.517670 622.931091,336.711090 
	C623.913940,336.107910 625.666199,336.758484 627.066772,336.835968 
	C626.864807,338.184418 627.113647,339.882568 626.384644,340.822113 
	C622.792786,345.451385 619.034851,349.961761 615.155823,354.355469 
	C611.309937,358.711609 615.228394,362.049347 616.501892,365.664581 
	C617.023621,367.145599 618.475159,368.299103 619.624268,370.110870 
	C617.438171,373.019745 615.145447,375.432892 612.822510,377.816589 
	C602.132629,388.785919 591.457825,399.770050 580.719849,410.692139 
	C578.516418,412.933380 577.843750,415.187927 580.018372,417.688416 
	C582.244324,420.248016 584.797974,420.555267 587.416687,418.215668 
	C588.905090,416.885864 590.334839,415.487274 591.745911,414.074646 
	C603.387878,402.419678 615.019348,390.754150 626.654053,379.091858 
	C627.324890,380.181976 628.080139,381.230011 628.649658,382.370697 
	C629.989990,385.054718 631.241699,387.782990 632.579712,391.052551 
	C631.810791,393.662781 630.346863,395.694031 630.283142,397.768341 
	C630.001526,406.926056 629.361206,416.173981 630.287720,425.242432 
	C631.495361,437.063141 628.126892,446.092102 618.591187,453.325714 
	C614.134888,456.706207 610.616516,461.343994 606.773010,465.504272 
	C604.195679,468.294098 601.794189,471.246368 599.086914,474.389587 
	C596.580750,472.005646 595.148865,470.378937 593.454529,469.099823 
	C591.406189,467.553497 589.231873,465.345612 586.941895,465.115021 
	C581.679749,464.585144 576.314453,465.080139 570.644409,465.180939 
	C567.672485,467.488708 565.503540,466.903900 563.107361,464.555695 
	C556.100830,457.689453 548.815125,451.106995 541.849365,444.200989 
	C538.256531,440.638885 535.741699,441.863861 532.664856,444.902008 
	C529.237854,448.285889 531.841431,450.100586 533.960938,452.194855 
	C535.379700,453.596710 536.960693,454.838593 538.336670,456.278687 
	C544.861450,463.107361 551.340637,469.979523 558.300903,477.326813 
	C553.559448,481.781494 548.467102,486.743927 543.178284,491.487335 
	C537.278931,496.778290 537.207581,496.683990 531.278931,491.758057 
	C530.787476,491.349701 530.131226,491.139801 529.305542,490.546997 
	C523.847351,485.660309 517.430664,486.649353 511.455353,487.071686 
	C504.426910,487.568420 499.493561,492.199860 495.633392,498.270020 
	C489.161652,492.190887 483.129639,486.524841 476.946320,480.563904 
	C470.265076,473.703156 463.735168,467.137299 456.926758,460.291443 
	C459.599762,457.811188 461.989929,455.593323 464.574432,453.195160 
	C466.533722,454.808289 468.177185,456.161377 469.953308,457.795593 
	C477.460632,465.227600 484.808746,472.406281 492.223389,479.515472 
	C495.097839,482.271515 498.249237,482.132507 501.085724,479.537384 
	C503.222504,477.582428 503.468262,475.289978 501.146332,473.087555 
	C492.618622,464.998749 484.110657,456.889160 475.388855,448.468689 
	C473.432159,447.095032 471.739624,445.254700 469.921539,445.120972 
	C462.044312,444.541656 453.806458,443.515106 449.538696,453.080780 
	C446.125702,449.933167 443.477448,447.490875 440.676941,444.761963 
	C438.450989,442.541199 436.377289,440.607025 434.227570,438.847778 
	C434.151581,439.022675 434.323517,438.680450 434.193542,438.379089 
	C430.745941,434.801636 427.555939,431.379028 424.046844,428.322815 
	C422.672333,427.125763 420.601440,426.164978 418.814514,426.106262 
	C412.493500,425.898590 406.154572,426.015717 399.829193,426.220428 
	C392.741730,426.449860 389.210083,430.161438 389.168579,437.260071 
	C389.111115,447.089172 389.292206,456.922241 389.062988,466.746429 
	C388.966919,470.863953 389.935577,474.267487 392.996521,477.414795 
	C393.549286,478.819824 394.097321,479.840973 394.645386,480.862122 
	C395.789764,480.168671 396.934143,479.475189 398.400757,478.729279 
	C399.148590,478.755920 399.574158,478.835022 400.098541,479.300232 
	C405.984558,481.425201 412.367676,481.575470 417.025177,486.318604 
	C416.545258,487.067047 416.172974,487.535889 415.490601,488.088440 
	C415.340973,489.446106 415.501434,490.720032 415.840546,492.274658 
	C417.013580,493.725952 418.007965,494.896545 419.015442,496.421692 
	C419.528351,497.440643 420.028198,498.105072 420.528076,498.769531 
	C421.024994,498.086121 421.521942,497.402740 422.259979,496.559418 
	C423.534698,495.890961 424.568298,495.382477 426.023071,494.894043 
	C427.251404,493.774597 428.058502,492.635132 428.990295,491.216705 
	C430.416138,489.649536 431.717316,488.361298 433.018494,487.073059 
M401.219513,526.360718 
	C402.144928,525.239197 403.070343,524.117676 404.632538,522.887756 
	C405.085175,521.590515 405.537811,520.293213 406.044067,518.230225 
	C406.486572,516.488770 406.929047,514.747253 408.007812,512.757080 
	C407.765778,510.836670 407.523743,508.916290 407.053711,506.250671 
	C405.009796,494.329224 394.311493,488.155487 386.732056,488.150879 
	C375.359985,488.144012 368.394440,490.204224 363.464630,501.577606 
	C359.472809,510.787109 363.190063,526.797913 374.605133,531.328552 
	C383.979584,535.049255 392.192444,534.457886 400.378448,527.745056 
	C400.577240,527.476501 400.776062,527.207947 401.219513,526.360718 
M588.801941,430.961945 
	C584.765808,435.155273 580.689087,439.310608 576.709900,443.557281 
	C574.573120,445.837769 572.660278,445.805267 570.305420,443.782593 
	C565.016541,439.239990 560.137878,434.731567 561.738892,426.613831 
	C562.277161,423.884277 562.608215,420.231750 558.076172,419.834503 
	C554.510925,419.522003 551.347900,422.639679 550.915894,426.642975 
	C550.016602,434.975861 551.027527,442.528473 558.858215,447.582642 
	C560.375549,448.561920 561.574768,450.025146 562.959656,451.220001 
	C570.137939,457.413300 578.112793,457.992920 584.101074,450.866760 
	C591.915222,441.567932 600.637329,436.979401 612.917969,438.793243 
	C617.806824,439.515228 620.349548,436.634827 620.497131,431.634216 
	C620.663635,425.993958 620.651245,420.288788 619.916687,414.717346 
	C619.692993,413.020660 617.000244,410.746124 615.122620,410.386993 
	C612.447266,409.875305 609.909790,411.362823 609.859741,414.875549 
	C609.826599,417.203552 609.740479,419.531250 609.736267,421.859161 
	C609.723877,428.754608 609.727417,428.592468 602.933655,428.917297 
	C598.393921,429.134369 593.880188,429.893677 588.801941,430.961945 
z"/>
<path fill="#0D1724" opacity="1.000000" stroke="none" 
	d="
M389.004852,686.256714 
	C388.601868,687.423157 388.532837,689.256042 387.743561,689.651550 
	C380.880554,693.090271 373.862885,696.218140 366.942078,699.544373 
	C360.654510,702.566345 355.787720,700.746765 351.890350,695.374146 
	C349.086700,691.509277 346.339447,687.603516 343.160217,683.145569 
	C342.394958,683.808289 341.117310,684.671326 340.146973,685.798828 
	C336.690247,689.815552 335.373108,689.694580 332.767639,684.152100 
	C332.806366,681.538269 332.699066,679.689514 332.937531,677.886353 
	C333.490540,673.705322 331.635651,672.211487 327.590057,672.247131 
	C310.270996,672.399963 292.950104,672.353455 275.631104,672.509583 
	C269.587372,672.564026 269.308502,673.366638 269.074310,679.726685 
	C268.873962,685.165955 271.901123,685.418030 276.044373,685.415710 
	C294.025848,685.405823 312.007385,685.601746 329.988953,685.722900 
	C329.980682,686.054688 330.089905,686.454773 329.943726,686.706482 
	C329.325073,687.771484 328.521942,689.745789 327.980194,689.684082 
	C321.548340,688.952026 320.283783,699.372864 312.975342,696.520935 
	C311.135712,695.803101 309.152222,695.455688 307.238220,694.925842 
	C306.441315,694.705261 305.184662,694.011475 304.930939,694.280823 
	C300.739960,698.729248 297.604279,694.066956 293.927551,693.371094 
	C290.476471,692.717834 286.739105,693.611633 283.125427,693.773865 
	C279.394531,693.941528 275.652496,693.937317 271.931549,694.221130 
	C269.515686,694.405396 267.128845,694.970642 264.118347,695.465698 
	C261.499756,692.614075 258.501282,689.348755 255.219147,685.537842 
	C254.962433,658.627747 255.003983,632.263245 254.970245,605.898804 
	C254.968658,604.662476 254.296082,603.427124 253.935974,602.191284 
	C252.342728,595.470032 259.481750,593.013306 261.010101,587.802673 
	C261.098083,587.502808 261.980682,587.114319 262.285522,587.246582 
	C270.191101,590.675354 277.066650,584.827576 284.620361,584.794739 
	C291.715393,584.763977 299.004456,582.426758 305.274963,587.999695 
	C306.233582,588.851746 308.112427,589.023621 309.531403,588.938599 
	C314.648346,588.631897 318.123199,591.051880 321.608002,594.569458 
	C323.863220,596.845947 323.703552,598.698425 322.560852,601.600098 
	C306.459412,602.085938 290.822388,602.083801 275.185425,602.124451 
	C269.325836,602.139709 269.241974,602.485657 269.093323,608.975220 
	C268.988159,613.565002 270.522400,615.623230 275.424133,615.558350 
	C291.556396,615.344788 307.692810,615.436462 323.827606,615.426208 
	C332.397064,615.420776 333.351044,614.438049 332.642670,605.972534 
	C332.548187,604.843506 332.078613,603.745850 331.782745,602.633667 
	C335.107483,597.841370 338.718109,597.533447 342.450439,601.723877 
	C345.615234,605.277100 350.524414,605.104614 354.611633,600.782349 
	C358.310913,596.870361 361.795258,592.869751 367.595825,592.321960 
	C379.010468,591.244019 390.319611,590.664185 401.111237,595.969421 
	C406.285431,598.513000 411.710815,600.649841 417.212372,602.359863 
	C418.862610,602.872864 421.413208,601.723816 423.094299,600.632263 
	C426.092560,598.685486 428.927765,596.392395 431.489716,593.894043 
	C434.390808,591.064941 436.900574,587.836609 439.613739,584.811707 
	C440.583405,583.730530 441.467560,582.221436 442.701508,581.783813 
	C453.248566,578.042542 464.033508,577.913513 474.789368,580.634644 
	C476.135284,580.975098 477.879089,583.505371 477.823242,584.959045 
	C477.605957,590.617004 480.530212,592.270813 485.529602,593.258728 
	C490.679535,594.276367 496.596863,594.854126 498.477264,601.572876 
	C477.669556,601.942017 457.221954,601.881470 436.794922,601.411865 
	C435.725128,600.451233 434.428070,599.260681 433.602325,599.527710 
	C432.775116,599.795227 432.418518,601.518066 431.804993,602.685425 
	C431.754333,602.767761 431.589600,602.869141 431.219849,602.691162 
	C429.956879,603.181274 429.063660,603.849426 428.170471,604.517578 
	C429.072052,605.392334 429.973633,606.267090 430.984772,607.495544 
	C431.356140,614.873230 431.716339,615.183044 438.534515,615.130188 
	C445.453400,615.076538 452.373047,615.118347 459.702026,615.118347 
	C459.702026,617.613464 459.704010,619.584961 459.701782,621.556396 
	C459.681702,639.166443 459.559082,656.777100 459.676361,674.386230 
	C459.753510,685.974426 457.770630,685.807312 471.008026,685.221619 
	C464.155487,692.003357 459.361755,691.968933 452.973999,685.430298 
	C452.436066,684.879700 450.126892,685.576416 448.945923,686.238342 
	C446.536774,687.588623 447.682129,693.661926 442.179993,691.146301 
	C439.438629,689.892883 436.433350,689.218445 433.552185,688.267944 
	C432.811340,688.023499 432.053436,687.419006 431.362366,687.497803 
	C422.346405,688.525085 413.451111,689.912537 406.979279,697.302795 
	C406.794647,697.513550 406.376434,697.519714 406.521454,696.459961 
	C402.769745,694.723389 399.139740,692.591370 395.224365,691.386780 
	C392.529175,690.557617 391.724579,689.321289 392.304077,686.272217 
	C411.169281,681.514709 422.747253,670.052551 426.251099,651.475159 
	C429.482880,634.340210 423.941345,619.938782 409.904236,608.744751 
	C408.848297,607.946350 407.851898,607.501038 406.576660,607.031860 
	C405.865753,606.670471 405.433655,606.333008 404.933380,605.656738 
	C402.577789,604.542053 400.290314,603.766235 397.603638,602.992310 
	C391.490051,602.385315 385.775665,601.776367 379.877563,600.916443 
	C378.793732,601.014893 377.893677,601.364319 376.649536,601.859436 
	C375.566254,602.081726 374.827057,602.158264 373.931122,602.000000 
	C373.182312,602.142273 372.590302,602.519287 371.643433,603.050232 
	C368.000732,604.848267 364.477997,606.147034 361.465393,608.195923 
	C347.981873,617.366089 341.569397,630.303406 342.444855,646.531738 
	C343.359253,663.482666 352.224884,675.792053 367.252625,682.662048 
	C373.703125,685.610779 381.706848,685.161865 389.004852,686.256714 
M321.960358,637.925720 
	C306.514862,637.889709 291.069336,637.827759 275.623840,637.831543 
	C270.064392,637.832886 269.394104,638.798767 269.266205,644.742065 
	C269.169403,649.240112 271.358429,650.333496 275.455414,650.274170 
	C289.404114,650.072021 303.358582,650.245300 317.306030,650.001221 
	C319.670959,649.959839 323.826538,648.869934 324.014984,647.740540 
	C324.525024,644.683838 323.344940,641.345093 321.960358,637.925720 
z"/>
<path fill="#101A27" opacity="1.000000" stroke="none" 
	d="
M837.004578,615.081787 
	C837.858276,617.469666 837.640747,619.232788 835.249695,620.957642 
	C828.014404,626.177002 827.664795,628.446655 833.556091,634.902344 
	C837.060425,638.742249 836.246582,642.806702 835.382263,646.956116 
	C834.781128,649.841797 832.935120,650.196106 830.435913,647.626465 
	C830.116577,645.276306 830.042297,643.441650 830.143005,641.616638 
	C830.296021,638.841431 829.109192,637.836304 826.310425,637.843567 
	C810.989014,637.883179 795.666992,637.819153 780.345825,637.704712 
	C775.295837,637.667053 776.064880,641.263977 775.962708,644.340637 
	C775.856384,647.541382 776.024658,650.332092 780.547180,650.285645 
	C796.365906,650.123108 812.186707,650.161926 828.006714,650.124268 
	C823.437683,657.905273 823.664734,659.320435 830.877380,667.550781 
	C829.960388,668.796326 829.025391,670.066345 827.717285,671.796448 
	C826.896606,672.180298 826.449097,672.104126 825.914124,671.668030 
	C823.637329,669.523376 821.571228,668.748962 819.542358,672.133240 
	C808.151062,672.301636 797.216370,672.370056 786.281555,672.406860 
	C776.375183,672.440186 776.375122,672.425049 775.762695,682.008179 
	C774.127625,682.548340 772.174866,682.695312 770.921753,683.708130 
	C768.063354,686.018250 765.219421,687.310425 761.442627,685.061401 
	C761.236084,660.635803 761.201782,636.880432 761.183960,613.125122 
	C761.175598,602.033020 761.190002,602.033020 749.992615,601.851807 
	C753.421326,600.995850 756.849976,600.139893 759.802917,599.402710 
	C764.891174,594.445374 769.963867,589.503235 775.108826,584.490601 
	C781.737305,590.617920 788.900574,591.601990 796.464539,592.188171 
	C800.651062,592.512634 804.691956,594.716797 808.798523,596.073608 
	C808.784790,596.758240 808.771118,597.442810 808.757446,598.127380 
	C805.746826,598.749756 802.753906,599.778442 799.722046,599.910095 
	C793.323486,600.187927 786.903015,599.925171 780.495422,600.064087 
	C779.370361,600.088440 778.264343,600.989685 776.898193,602.232666 
	C776.458740,605.764526 776.153137,608.548157 776.115112,611.335388 
	C776.075867,614.210510 777.692932,615.468140 780.556580,615.445862 
	C799.372375,615.299744 818.188538,615.198059 837.004578,615.081787 
z"/>
<path fill="#F7F7F8" opacity="1.000000" stroke="none" 
	d="
M598.400635,636.340759 
	C602.711487,615.298462 618.715515,601.573730 639.029663,601.158691 
	C658.799927,600.754761 676.421631,613.591980 680.905212,632.420654 
	C685.087952,649.986023 680.487976,665.408386 666.376953,676.822205 
	C652.890381,687.730774 637.377502,689.251343 621.797485,681.746948 
	C605.763733,674.024109 598.064697,660.514954 597.942932,642.732971 
	C597.929382,640.741333 598.183289,638.747803 598.400635,636.340759 
M618.852661,663.630188 
	C630.184265,674.606812 645.446899,675.990173 657.417664,667.125610 
	C668.902283,658.621094 672.784851,642.986206 666.314697,630.500671 
	C660.719727,619.703796 651.480469,614.466553 639.519165,614.484192 
	C627.615540,614.501770 618.559998,619.991150 613.709900,630.931030 
	C608.626465,642.397217 610.049377,653.355774 618.852661,663.630188 
z"/>
<path fill="#F7F7F8" opacity="1.000000" stroke="none" 
	d="
M374.087891,602.234802 
	C374.827057,602.158264 375.566254,602.081726 376.965759,601.914795 
	C378.437836,601.605408 379.249573,601.386414 380.061310,601.167419 
	C385.775665,601.776367 391.490051,602.385315 397.870544,603.209717 
	C400.691650,604.281982 402.846588,605.138733 405.001526,605.995544 
	C405.433655,606.333008 405.865753,606.670471 406.748871,607.299805 
	C408.121155,608.093750 409.042450,608.595764 409.963776,609.097778 
	C423.941345,619.938782 429.482880,634.340210 426.251099,651.475159 
	C422.747253,670.052551 411.169281,681.514709 392.303314,685.863281 
	C391.243408,686.025085 390.487274,686.027405 389.367981,686.143188 
	C381.706848,685.161865 373.703125,685.610779 367.252625,682.662048 
	C352.224884,675.792053 343.359253,663.482666 342.444855,646.531738 
	C341.569397,630.303406 347.981873,617.366089 361.465393,608.195923 
	C364.477997,606.147034 368.000732,604.848267 371.931488,603.086792 
	C373.078918,602.724548 373.583405,602.479675 374.087891,602.234802 
M355.572968,641.660461 
	C354.827240,661.073059 370.941010,675.757629 389.551697,672.625488 
	C405.106903,670.007568 415.213165,656.841797 414.081696,640.669495 
	C413.076019,626.294678 400.825012,615.051697 385.586731,614.519165 
	C370.024109,613.975220 357.862152,624.640930 355.572968,641.660461 
z"/>
<path fill="#F5F5F6" opacity="1.000000" stroke="none" 
	d="
M253.481659,602.178528 
	C254.296082,603.427124 254.968658,604.662476 254.970245,605.898804 
	C255.003983,632.263245 254.962433,658.627747 254.861374,685.450378 
	C244.281174,675.725891 233.767792,665.550903 223.271683,655.358093 
	C216.290512,648.578674 209.334015,641.773926 201.866516,634.493042 
	C201.866516,640.524902 201.862717,646.100708 201.867340,651.676514 
	C201.875214,661.167175 201.773026,670.660034 201.954758,680.147461 
	C202.029984,684.074768 200.465302,685.690125 196.637177,685.371155 
	C195.145645,685.246826 193.449661,685.674561 192.195923,685.095215 
	C190.733414,684.419434 188.570663,682.921814 188.565475,681.772461 
	C188.446274,655.469604 188.578964,629.165588 188.689865,602.861877 
	C188.690964,602.602356 189.029922,602.344299 189.170776,602.143188 
	C206.434494,619.065430 223.698608,635.988037 241.609512,653.544678 
	C241.609512,647.543030 241.613190,642.147339 241.608704,636.751587 
	C241.600784,627.260925 241.854095,617.759460 241.470825,608.283813 
	C241.262146,603.124695 243.051468,601.237854 248.041199,601.969299 
	C249.677689,602.209229 251.363876,602.109924 253.481659,602.178528 
z"/>
<path fill="#F7F7F8" opacity="1.000000" stroke="none" 
	d="
M749.660400,602.084167 
	C761.190002,602.033020 761.175598,602.033020 761.183960,613.125122 
	C761.201782,636.880432 761.236084,660.635803 761.159546,684.873901 
	C759.289734,683.889465 757.397949,682.549072 755.778015,680.935547 
	C740.108459,665.327698 724.484558,649.674011 708.277588,633.463318 
	C708.096313,635.368835 707.884766,636.570679 707.882507,637.772949 
	C707.856201,651.756958 707.641174,665.746155 707.966125,679.722534 
	C708.097534,685.376831 704.895691,685.291870 700.969055,685.436951 
	C696.903625,685.587158 694.496155,685.011047 694.545471,679.871033 
	C694.781799,655.235168 694.653259,630.595886 694.668640,605.957825 
	C694.669495,604.658203 694.801331,603.358704 694.920593,601.169983 
	C712.385742,618.957642 729.277893,636.161743 746.170105,653.365845 
	C746.616821,653.083679 747.063538,652.801514 747.510315,652.519348 
	C747.621582,651.304016 747.823364,650.089294 747.830383,648.873352 
	C747.909485,635.222534 747.909485,621.570923 748.072937,607.921265 
	C748.095337,606.048279 748.890686,604.184570 749.660400,602.084167 
z"/>
<path fill="#F2F3F5" opacity="1.000000" stroke="none" 
	d="
M527.682678,616.023010 
	C527.684753,623.319946 527.684753,630.120850 527.684753,637.296875 
	C542.363770,637.296875 556.578796,637.296875 571.454163,637.296875 
	C571.454163,634.255493 571.470215,631.321167 571.450867,628.387085 
	C571.410217,622.223389 571.351501,616.059753 571.299194,609.896118 
	C571.234802,602.303345 575.186462,599.419434 582.510742,602.051575 
	C583.619934,602.450256 584.818542,604.495361 584.825806,605.785339 
	C584.967163,630.940186 584.917053,656.096069 584.970520,681.251526 
	C584.976868,684.229187 583.602539,685.557007 580.779785,685.575439 
	C579.115784,685.586304 577.445190,685.340271 575.787598,685.419067 
	C572.496704,685.575562 571.496277,683.993713 571.528992,680.865112 
	C571.612488,672.870605 571.443787,664.873474 571.383972,656.877380 
	C571.368103,654.754578 571.381470,652.631531 571.381470,650.194702 
	C556.706726,650.194702 542.601807,650.194702 527.764404,650.194702 
	C527.764404,653.764709 527.753113,657.358521 527.767029,660.952148 
	C527.788330,666.449707 527.834900,671.947144 527.856323,677.444763 
	C527.885132,684.839722 523.879517,687.865784 516.988159,685.070557 
	C515.577881,684.498535 514.468994,681.417603 514.443542,679.477112 
	C514.247131,664.486572 514.356323,649.492004 514.360718,634.498718 
	C514.363342,625.336365 514.598145,616.164429 514.247192,607.015259 
	C514.037415,601.545898 517.194092,601.764771 520.943542,601.776123 
	C524.697327,601.787537 528.153503,601.637329 527.714844,607.033691 
	C527.486145,609.847168 527.678467,612.694763 527.682678,616.023010 
z"/>
<path fill="#F7F7F8" opacity="1.000000" stroke="none" 
	d="
M436.774323,601.820984 
	C457.221954,601.881470 477.669556,601.942017 498.560638,601.900879 
	C504.563568,603.979675 501.419373,608.654541 501.637085,612.122559 
	C501.863983,615.737244 498.437408,615.138000 496.020416,615.149109 
	C488.551331,615.183411 481.082001,615.161560 472.839844,615.161560 
	C472.839844,617.457825 472.838623,619.370117 472.840057,621.282471 
	C472.854370,640.564148 472.902740,659.846008 472.830261,679.127380 
	C472.823242,680.996643 472.068726,682.863159 471.334595,684.976318 
	C457.770630,685.807312 459.753510,685.974426 459.676361,674.386230 
	C459.559082,656.777100 459.681702,639.166443 459.701782,621.556396 
	C459.704010,619.584961 459.702026,617.613464 459.702026,615.118347 
	C452.373047,615.118347 445.453400,615.076538 438.534515,615.130188 
	C431.716339,615.183044 431.356140,614.873230 431.089355,607.199585 
	C431.252777,605.322937 431.421204,604.096069 431.589600,602.869141 
	C431.589600,602.869141 431.754333,602.767761 432.102722,602.586487 
	C433.892181,602.210449 435.333252,602.015747 436.774323,601.820984 
z"/>
<path fill="#366ABC" opacity="1.000000" stroke="none" 
	d="
M529.551514,490.837677 
	C530.131226,491.139801 530.787476,491.349701 531.278931,491.758057 
	C537.207581,496.683990 537.278931,496.778290 543.178284,491.487335 
	C548.467102,486.743927 553.559448,481.781494 558.300903,477.326813 
	C551.340637,469.979523 544.861450,463.107361 538.336670,456.278687 
	C536.960693,454.838593 535.379700,453.596710 533.960938,452.194855 
	C531.841431,450.100586 529.237854,448.285889 532.664856,444.902008 
	C535.741699,441.863861 538.256531,440.638885 541.849365,444.200989 
	C548.815125,451.106995 556.100830,457.689453 563.107361,464.555695 
	C565.503540,466.903900 567.672485,467.488708 570.647156,465.574524 
	C572.012878,469.331635 573.029114,472.716888 574.045410,476.102142 
	C569.445557,481.240784 564.845703,486.379456 559.442322,492.415833 
	C563.824524,492.415833 567.234497,492.357483 570.641785,492.430511 
	C574.967468,492.523163 579.352722,492.349640 583.585938,493.052338 
	C585.371582,493.348724 588.190063,495.651520 588.131104,496.931366 
	C588.039368,498.921997 586.306152,501.619690 584.509155,502.548950 
	C582.313721,503.684265 579.335144,503.520569 576.692566,503.538666 
	C564.386597,503.622894 552.079773,503.575958 539.253540,503.575958 
	C539.217773,513.767578 536.473206,522.328186 527.058533,527.563660 
	C525.426514,526.010620 524.338257,524.638367 523.262939,523.255981 
	C522.348816,522.080872 521.449646,520.894226 520.792969,519.466553 
	C530.527466,512.485413 530.482300,504.312500 521.190796,496.834290 
	C524.158630,494.702118 526.855103,492.769897 529.551514,490.837677 
z"/>
<path fill="#3564B7" opacity="1.000000" stroke="none" 
	d="
M574.371521,475.919678 
	C573.029114,472.716888 572.012878,469.331635 570.993774,465.552765 
	C576.314453,465.080139 581.679749,464.585144 586.941895,465.115021 
	C589.231873,465.345612 591.406189,467.553497 593.454529,469.099823 
	C595.148865,470.378937 596.580750,472.005646 599.086914,474.389587 
	C601.794189,471.246368 604.195679,468.294098 606.773010,465.504272 
	C610.616516,461.343994 614.134888,456.706207 618.591187,453.325714 
	C628.126892,446.092102 631.495361,437.063141 630.287720,425.242432 
	C629.361206,416.173981 630.001526,406.926056 630.283142,397.768341 
	C630.346863,395.694031 631.810791,393.662781 632.851135,391.318359 
	C639.637085,389.727722 641.817322,391.407837 641.819336,397.845215 
	C641.823608,411.328857 641.695068,424.813721 641.848877,438.295471 
	C641.897644,442.568207 640.766235,446.023346 637.729553,449.073090 
	C625.867371,460.986450 614.071716,472.966614 602.322083,484.991089 
	C599.396606,487.985016 596.776184,488.105347 593.809509,485.103149 
	C590.769470,482.026672 587.533997,479.144165 584.414551,476.145020 
	C581.279175,473.130554 578.061646,472.895294 574.371521,475.919678 
z"/>
<path fill="#348DCF" opacity="1.000000" stroke="none" 
	d="
M433.159729,486.768463 
	C431.717316,488.361298 430.416138,489.649536 428.702881,491.400757 
	C427.394470,492.867126 426.498169,493.870544 425.601868,494.873962 
	C424.568298,495.382477 423.534698,495.890961 421.964783,496.467346 
	C420.619781,496.379211 419.811096,496.223175 419.002380,496.067139 
	C418.007965,494.896545 417.013580,493.725952 415.849060,491.875000 
	C415.719513,490.131348 415.760101,489.068054 415.800720,488.004761 
	C416.172974,487.535889 416.545258,487.067047 417.319092,486.172882 
	C421.143463,482.164215 424.566284,478.580902 428.287750,474.849945 
	C432.884216,470.210297 437.182007,465.718262 441.752350,460.941345 
	C436.191376,455.463898 431.044250,450.394104 425.925446,444.911530 
	C425.889862,438.454041 430.695374,439.414093 434.323517,438.680450 
	C434.323517,438.680450 434.151581,439.022675 434.171692,439.246399 
	C434.546448,443.540070 436.514313,445.690613 440.829224,445.048553 
	C443.477448,447.490875 446.125702,449.933167 449.538696,453.080780 
	C453.806458,443.515106 462.044312,444.541656 469.921539,445.120972 
	C471.739624,445.254700 473.432159,447.095032 474.999298,448.551971 
	C473.150970,451.807434 471.485809,454.660919 469.820648,457.514465 
	C468.177185,456.161377 466.533722,454.808289 464.574432,453.195160 
	C461.989929,455.593323 459.599762,457.811188 456.926758,460.291443 
	C463.735168,467.137299 470.265076,473.703156 476.727142,480.845245 
	C474.068085,483.389893 471.476837,485.358337 468.885620,487.326752 
	C462.723602,481.421600 456.561584,475.516449 451.086121,470.269226 
	C444.976532,475.832428 439.138794,481.148163 433.159729,486.768463 
z"/>
<path fill="#366ABC" opacity="1.000000" stroke="none" 
	d="
M626.998779,379.056946 
	C615.019348,390.754150 603.387878,402.419678 591.745911,414.074646 
	C590.334839,415.487274 588.905090,416.885864 587.416687,418.215668 
	C584.797974,420.555267 582.244324,420.248016 580.018372,417.688416 
	C577.843750,415.187927 578.516418,412.933380 580.719849,410.692139 
	C591.457825,399.770050 602.132629,388.785919 612.822510,377.816589 
	C615.145447,375.432892 617.438171,373.019745 619.891174,370.317566 
	C620.037476,370.015015 620.462463,369.973389 621.037109,370.014069 
	C626.165344,371.541016 628.983398,369.247955 631.450562,365.894562 
	C635.614746,372.179443 640.676025,374.370209 646.246094,372.435425 
	C651.647034,370.559357 654.736389,365.760284 654.011536,360.075470 
	C653.784241,358.293457 653.098755,356.569885 652.717407,354.421753 
	C654.760925,351.258240 656.709961,348.492615 658.659058,345.726990 
	C665.463562,351.399048 666.048218,358.883636 664.023560,366.621063 
	C661.667847,375.623779 655.473450,381.051758 646.318665,382.944397 
	C639.444824,384.365479 633.317322,382.031067 626.998779,379.056946 
z"/>
<path fill="#3A79C6" opacity="1.000000" stroke="none" 
	d="
M469.007050,487.622589 
	C471.476837,485.358337 474.068085,483.389893 476.878479,481.140137 
	C483.129639,486.524841 489.161652,492.190887 495.633392,498.270020 
	C499.493561,492.199860 504.426910,487.568420 511.455353,487.071686 
	C517.430664,486.649353 523.847351,485.660309 529.305542,490.546997 
	C526.855103,492.769897 524.158630,494.702118 520.806030,496.787476 
	C513.867188,495.406982 509.288025,496.926575 506.232849,501.558777 
	C503.329895,505.960297 503.506989,511.366547 506.695831,515.462830 
	C510.317139,520.114441 515.159485,520.799683 520.543884,519.712646 
	C521.449646,520.894226 522.348816,522.080872 523.262939,523.255981 
	C524.338257,524.638367 525.426514,526.010620 526.729248,527.645508 
	C514.585388,534.754578 498.995117,528.879211 494.624786,515.266541 
	C493.338806,511.260956 491.279327,508.761566 488.154114,506.115326 
	C481.469177,500.454865 475.431366,494.030121 469.007050,487.622589 
z"/>
<path fill="#F7F7F8" opacity="1.000000" stroke="none" 
	d="
M331.362366,602.499756 
	C332.078613,603.745850 332.548187,604.843506 332.642670,605.972534 
	C333.351044,614.438049 332.397064,615.420776 323.827606,615.426208 
	C307.692810,615.436462 291.556396,615.344788 275.424133,615.558350 
	C270.522400,615.623230 268.988159,613.565002 269.093323,608.975220 
	C269.241974,602.485657 269.325836,602.139709 275.185425,602.124451 
	C290.822388,602.083801 306.459412,602.085938 322.549622,601.971191 
	C325.649170,602.036194 328.295563,602.201050 331.362366,602.499756 
z"/>
<path fill="#F2F3F5" opacity="1.000000" stroke="none" 
	d="
M775.878174,682.373718 
	C776.375122,672.425049 776.375183,672.440186 786.281555,672.406860 
	C797.216370,672.370056 808.151062,672.301636 819.962158,672.235596 
	C822.559570,672.158813 824.280518,672.093384 826.001526,672.027954 
	C826.449097,672.104126 826.896606,672.180298 827.671265,672.146362 
	C829.653137,672.120972 831.307129,672.256042 832.962769,672.281494 
	C839.545837,672.382751 839.627563,672.453796 839.540588,679.036377 
	C839.459473,685.174133 839.206299,685.370605 832.924072,685.369873 
	C815.961975,685.367798 798.998840,685.498535 782.039001,685.312866 
	C780.014771,685.290710 778.008362,683.636841 775.878174,682.373718 
z"/>
<path fill="#F2F3F5" opacity="1.000000" stroke="none" 
	d="
M330.226501,685.532104 
	C312.007385,685.601746 294.025848,685.405823 276.044373,685.415710 
	C271.901123,685.418030 268.873962,685.165955 269.074310,679.726685 
	C269.308502,673.366638 269.587372,672.564026 275.631104,672.509583 
	C292.950104,672.353455 310.270996,672.399963 327.590057,672.247131 
	C331.635651,672.211487 333.490540,673.705322 332.937531,677.886353 
	C332.699066,679.689514 332.806366,681.538269 332.663452,683.760254 
	C331.868286,684.549866 331.166199,684.945557 330.226501,685.532104 
z"/>
<path fill="#2B9AD3" opacity="1.000000" stroke="none" 
	d="
M555.449524,374.132172 
	C564.593811,365.153442 573.738159,356.174744 583.069458,346.950867 
	C586.094299,345.764160 586.772339,347.374695 586.797729,349.721436 
	C586.827942,352.512756 586.835327,355.304291 586.936646,358.547607 
	C586.953796,360.159698 586.636902,361.370270 586.858826,362.472321 
	C589.197571,374.083954 582.388306,381.054688 573.746155,387.714417 
	C569.364624,387.348663 565.570496,386.686981 561.950928,385.655548 
	C564.322510,381.434662 560.829224,383.221588 559.676636,382.910400 
	C556.961243,382.177338 554.197571,381.622772 551.453430,380.995972 
	C552.785461,378.708069 554.117493,376.420105 555.449524,374.132172 
z"/>
<path fill="#F7F7F8" opacity="1.000000" stroke="none" 
	d="
M837.202087,614.861328 
	C818.188538,615.198059 799.372375,615.299744 780.556580,615.445862 
	C777.692932,615.468140 776.075867,614.210510 776.115112,611.335388 
	C776.153137,608.548157 776.458740,605.764526 776.819092,602.626831 
	C796.421204,602.188660 815.850952,602.080017 835.280762,602.072937 
	C836.474121,602.072510 837.667664,602.873535 839.071167,604.020264 
	C839.148560,607.726990 839.015930,610.715027 838.883240,613.703125 
	C838.388672,614.015686 837.894104,614.328308 837.202087,614.861328 
z"/>
<path fill="#F7F7F8" opacity="1.000000" stroke="none" 
	d="
M828.231445,649.925171 
	C812.186707,650.161926 796.365906,650.123108 780.547180,650.285645 
	C776.024658,650.332092 775.856384,647.541382 775.962708,644.340637 
	C776.064880,641.263977 775.295837,637.667053 780.345825,637.704712 
	C795.666992,637.819153 810.989014,637.883179 826.310425,637.843567 
	C829.109192,637.836304 830.296021,638.841431 830.143005,641.616638 
	C830.042297,643.441650 830.116577,645.276306 830.121582,647.556885 
	C829.572510,648.580139 829.014343,649.153137 828.231445,649.925171 
z"/>
<path fill="#3A79C6" opacity="1.000000" stroke="none" 
	d="
M658.499878,345.409424 
	C656.709961,348.492615 654.760925,351.258240 652.464600,354.151611 
	C649.459717,352.774170 646.930725,350.319641 644.120667,349.938751 
	C635.073303,348.712341 630.056030,355.117065 631.202515,365.650604 
	C628.983398,369.247955 626.165344,371.541016 621.250549,370.008026 
	C620.779480,368.818726 620.783508,367.651398 620.541931,366.537384 
	C618.304749,356.222351 622.229553,346.967224 631.095520,341.759613 
	C639.519470,336.811646 650.752991,338.185608 658.499878,345.409424 
z"/>
<path fill="#101A27" opacity="1.000000" stroke="none" 
	d="
M838.914307,614.061218 
	C839.015930,610.715027 839.148560,607.726990 839.304993,604.361328 
	C841.849426,604.151306 845.822937,603.239075 845.486145,606.916931 
	C845.188416,610.168396 842.539673,613.204529 840.928955,616.335693 
	C840.267700,615.696899 839.606506,615.058105 838.914307,614.061218 
z"/>
<path fill="#2D93D0" opacity="1.000000" stroke="none" 
	d="
M473.823273,421.398834 
	C471.583984,419.128418 469.607452,419.438843 467.616333,421.833649 
	C466.350098,423.356628 464.527771,424.466309 463.453247,426.091003 
	C459.026154,432.785004 452.388489,432.389343 445.702637,431.868622 
	C444.780640,431.796814 443.710266,431.352600 443.036438,430.727417 
	C436.746124,424.890717 431.476257,419.410583 431.217773,409.209808 
	C430.919434,397.438660 438.498260,392.225708 445.038696,385.570587 
	C445.931641,384.662018 447.822937,384.734711 449.982391,384.384644 
	C460.472748,384.381622 470.232727,384.347076 479.992706,384.312500 
	C482.826599,386.757660 485.660492,389.202850 488.836334,392.147522 
	C490.456238,393.749359 491.734192,394.851685 493.012146,395.954010 
	C495.669189,398.731476 498.326263,401.508942 500.816010,404.722595 
	C498.041077,407.144287 495.433472,409.129822 492.825836,411.115326 
	C488.094574,406.708344 483.478271,402.166779 478.567017,397.970459 
	C476.942047,396.582001 474.606445,395.467926 472.509949,395.300079 
	C467.541321,394.902222 462.504608,395.403107 457.525208,395.080811 
	C444.474304,394.236084 440.877106,405.348114 442.983612,415.420654 
	C444.063171,420.582581 451.112152,422.511932 454.898956,418.999207 
	C458.563293,415.600098 462.257812,412.213348 465.672913,408.571533 
	C468.888123,405.142822 471.700928,404.334808 475.079681,408.346405 
	C476.998657,410.624817 479.400391,412.496674 481.519684,415.072510 
	C478.910858,417.528564 476.367065,419.463684 473.823273,421.398834 
z"/>
<path fill="#2B9AD3" opacity="1.000000" stroke="none" 
	d="
M399.923218,527.970154 
	C392.192444,534.457886 383.979584,535.049255 374.605133,531.328552 
	C363.190063,526.797913 359.472809,510.787109 363.464630,501.577606 
	C368.394440,490.204224 375.359985,488.144012 386.732056,488.150879 
	C394.311493,488.155487 405.009796,494.329224 407.119629,507.050842 
	C407.247528,509.569305 407.309540,511.287537 407.371521,513.005798 
	C406.929047,514.747253 406.486572,516.488770 405.797211,518.848328 
	C405.032166,520.643005 404.513977,521.819580 403.995789,522.996155 
	C403.070343,524.117676 402.144928,525.239197 400.858948,526.748291 
	C400.306641,527.413940 400.114929,527.692078 399.923218,527.970154 
M396.047974,507.091248 
	C395.384949,505.765106 394.904572,504.301056 394.026123,503.137543 
	C390.832245,498.907288 384.875153,497.249634 380.175110,499.127502 
	C375.415527,501.029083 372.083862,506.350586 372.470062,511.434296 
	C372.889496,516.955200 376.974609,521.719238 382.173218,522.750061 
	C387.081360,523.723267 392.896149,521.032532 394.968994,516.139709 
	C396.013885,513.673279 395.819977,510.682098 396.047974,507.091248 
z"/>
<path fill="#366ABC" opacity="1.000000" stroke="none" 
	d="
M589.078369,430.686127 
	C593.880188,429.893677 598.393921,429.134369 602.933655,428.917297 
	C609.727417,428.592468 609.723877,428.754608 609.736267,421.859161 
	C609.740479,419.531250 609.826599,417.203552 609.859741,414.875549 
	C609.909790,411.362823 612.447266,409.875305 615.122620,410.386993 
	C617.000244,410.746124 619.692993,413.020660 619.916687,414.717346 
	C620.651245,420.288788 620.663635,425.993958 620.497131,431.634216 
	C620.349548,436.634827 617.806824,439.515228 612.917969,438.793243 
	C600.637329,436.979401 591.915222,441.567932 584.101074,450.866760 
	C578.112793,457.992920 570.137939,457.413300 562.959656,451.220001 
	C561.574768,450.025146 560.375549,448.561920 558.858215,447.582642 
	C551.027527,442.528473 550.016602,434.975861 550.915894,426.642975 
	C551.347900,422.639679 554.510925,419.522003 558.076172,419.834503 
	C562.608215,420.231750 562.277161,423.884277 561.738892,426.613831 
	C560.137878,434.731567 565.016541,439.239990 570.305420,443.782593 
	C572.660278,445.805267 574.573120,445.837769 576.709900,443.557281 
	C580.689087,439.310608 584.765808,435.155273 589.078369,430.686127 
z"/>
<path fill="#2B9AD3" opacity="1.000000" stroke="none" 
	d="
M434.193542,438.379089 
	C430.695374,439.414093 425.889862,438.454041 425.622864,444.745789 
	C423.743530,443.524231 422.194458,442.056396 420.646851,440.586914 
	C416.339203,436.496613 406.774963,435.223206 400.728333,438.330811 
	C400.669281,445.486694 400.775879,452.269562 400.807251,459.368439 
	C400.790039,460.110504 400.848083,460.536499 400.773285,461.294891 
	C401.215240,463.787537 398.597382,467.155792 403.458313,467.937561 
	C405.873016,468.007721 407.837708,468.112122 409.787262,467.984650 
	C413.418732,467.747192 416.690247,468.125244 418.306702,472.394531 
	C417.573914,476.929504 414.788574,478.591644 410.917175,478.753723 
	C407.282166,478.905914 403.639191,478.868256 399.999725,478.914124 
	C399.574158,478.835022 399.148590,478.755920 398.110748,478.560486 
	C395.996246,477.973083 394.494049,477.502014 392.991852,477.030945 
	C389.935577,474.267487 388.966919,470.863953 389.062988,466.746429 
	C389.292206,456.922241 389.111115,447.089172 389.168579,437.260071 
	C389.210083,430.161438 392.741730,426.449860 399.829193,426.220428 
	C406.154572,426.015717 412.493500,425.898590 418.814514,426.106262 
	C420.601440,426.164978 422.672333,427.125763 424.046844,428.322815 
	C427.555939,431.379028 430.745941,434.801636 434.193542,438.379089 
z"/>
<path fill="#3382C6" opacity="1.000000" stroke="none" 
	d="
M492.976379,411.415588 
	C495.433472,409.129822 498.041077,407.144287 500.989410,405.017212 
	C508.000183,411.160339 514.670288,417.445068 521.805908,424.169617 
	C523.184448,424.408112 524.097412,424.206787 525.010376,424.005463 
	C535.692566,412.935883 546.374695,401.866302 557.469482,390.329407 
	C559.180176,388.583130 560.478210,387.304199 561.776306,386.025269 
	C565.570496,386.686981 569.364624,387.348663 573.579041,388.006836 
	C572.249023,390.161896 570.640808,392.456390 568.725586,394.457001 
	C555.980408,407.770538 543.175171,421.026672 530.377258,434.289764 
	C525.384277,439.464294 523.178040,439.770721 517.799805,434.915497 
	C509.421967,427.352356 501.336334,419.465515 492.976379,411.415588 
z"/>
<path fill="#3382C6" opacity="1.000000" stroke="none" 
	d="
M473.960815,421.686279 
	C476.367065,419.463684 478.910858,417.528564 481.691284,415.358856 
	C493.693024,426.492981 505.458069,437.861633 516.963135,449.569885 
	C513.066528,450.973694 509.429962,452.037903 505.793396,453.102112 
	C495.228363,442.726013 484.663330,432.349884 473.960815,421.686279 
z"/>
<path fill="#366ABC" opacity="1.000000" stroke="none" 
	d="
M505.951172,453.401367 
	C509.429962,452.037903 513.066528,450.973694 517.149902,449.865906 
	C524.902832,456.825256 532.173523,463.865753 539.535889,470.809021 
	C541.854187,472.995270 542.407288,475.213593 540.363953,477.761322 
	C538.275330,480.365631 535.643005,480.776886 532.868530,479.020386 
	C531.198669,477.963287 529.660339,476.644287 528.234070,475.265839 
	C520.828735,468.108856 513.478394,460.894806 505.951172,453.401367 
z"/>
<path fill="#3382C6" opacity="1.000000" stroke="none" 
	d="
M469.953308,457.795563 
	C471.485809,454.660919 473.150970,451.807434 475.205688,448.870636 
	C484.110657,456.889160 492.618622,464.998749 501.146332,473.087555 
	C503.468262,475.289978 503.222504,477.582428 501.085724,479.537384 
	C498.249237,482.132507 495.097839,482.271515 492.223389,479.515472 
	C484.808746,472.406281 477.460632,465.227600 469.953308,457.795563 
z"/>
<path fill="#0D1724" opacity="1.000000" stroke="none" 
	d="
M400.098541,479.300232 
	C403.639191,478.868256 407.282166,478.905914 410.917175,478.753723 
	C414.788574,478.591644 417.573914,476.929504 418.631470,472.495300 
	C421.188019,475.751251 424.719910,474.950134 427.989075,474.997559 
	C424.566284,478.580902 421.143463,482.164215 417.426758,485.893250 
	C412.367676,481.575470 405.984558,481.425201 400.098541,479.300232 
z"/>
<path fill="#09131F" opacity="1.000000" stroke="none" 
	d="
M561.950928,385.655518 
	C560.478210,387.304199 559.180176,388.583130 557.623413,390.025757 
	C555.420959,388.469543 553.219299,386.958130 551.609863,384.967834 
	C550.159180,383.173859 547.986816,380.239716 548.584290,378.909668 
	C549.525635,376.814087 552.521606,375.641449 555.048706,374.105133 
	C554.117493,376.420105 552.785461,378.708069 551.453430,380.995972 
	C554.197571,381.622772 556.961243,382.177338 559.676636,382.910400 
	C560.829224,383.221588 564.322510,381.434662 561.950928,385.655518 
z"/>
<path fill="#101A27" opacity="1.000000" stroke="none" 
	d="
M479.797668,384.006958 
	C470.232727,384.347076 460.472748,384.381622 450.327637,384.283997 
	C451.145813,383.770264 452.354218,383.044403 453.551605,383.062195 
	C462.236542,383.191071 470.919220,383.470001 479.797668,384.006958 
z"/>
<path fill="#2B9AD3" opacity="1.000000" stroke="none" 
	d="
M440.676941,444.761963 
	C436.514313,445.690613 434.546448,443.540070 434.247681,439.071472 
	C436.377289,440.607025 438.450989,442.541199 440.676941,444.761963 
z"/>
<path fill="#0D1724" opacity="1.000000" stroke="none" 
	d="
M392.996521,477.414825 
	C394.494049,477.502014 395.996246,477.973083 397.788513,478.612946 
	C396.934143,479.475189 395.789764,480.168671 394.645386,480.862122 
	C394.097321,479.840973 393.549286,478.819824 392.996521,477.414825 
z"/>
<path fill="#101A27" opacity="1.000000" stroke="none" 
	d="
M407.689697,512.881470 
	C407.309540,511.287537 407.247528,509.569305 407.233612,507.423462 
	C407.523743,508.916290 407.765778,510.836670 407.689697,512.881470 
z"/>
<path fill="#101A27" opacity="1.000000" stroke="none" 
	d="
M492.964661,395.620300 
	C491.734192,394.851685 490.456238,393.749359 489.128174,392.311768 
	C490.357788,393.079895 491.637482,394.183228 492.964661,395.620300 
z"/>
<path fill="#0D1724" opacity="1.000000" stroke="none" 
	d="
M415.490601,488.088440 
	C415.760101,489.068054 415.719513,490.131348 415.670410,491.594330 
	C415.501434,490.720032 415.340973,489.446106 415.490601,488.088440 
z"/>
<path fill="#101A27" opacity="1.000000" stroke="none" 
	d="
M404.314178,522.941956 
	C404.513977,521.819580 405.032166,520.643005 405.770386,519.231201 
	C405.537811,520.293213 405.085175,521.590515 404.314178,522.941956 
z"/>
<path fill="#09131F" opacity="1.000000" stroke="none" 
	d="
M419.015442,496.421692 
	C419.811096,496.223175 420.619781,496.379211 421.723694,496.627289 
	C421.521942,497.402740 421.024994,498.086121 420.528076,498.769531 
	C420.028198,498.105072 419.528351,497.440643 419.015442,496.421692 
z"/>
<path fill="#09131F" opacity="1.000000" stroke="none" 
	d="
M426.023071,494.894012 
	C426.498169,493.870544 427.394470,492.867126 428.578186,491.679688 
	C428.058502,492.635132 427.251404,493.774597 426.023071,494.894012 
z"/>
<path fill="#101A27" opacity="1.000000" stroke="none" 
	d="
M524.625610,424.003479 
	C524.097412,424.206787 523.184448,424.408112 522.101013,424.319702 
	C522.700684,424.020447 523.470764,424.010956 524.625610,424.003479 
z"/>
<path fill="#101A27" opacity="1.000000" stroke="none" 
	d="
M400.150818,527.857605 
	C400.114929,527.692078 400.306641,527.413940 400.736633,527.037598 
	C400.776062,527.207947 400.577240,527.476501 400.150818,527.857605 
z"/>
<path fill="#F7F7F8" opacity="1.000000" stroke="none" 
	d="
M322.397766,638.021973 
	C323.344940,641.345093 324.525024,644.683838 324.014984,647.740540 
	C323.826538,648.869934 319.670959,649.959839 317.306030,650.001221 
	C303.358582,650.245300 289.404114,650.072021 275.455414,650.274170 
	C271.358429,650.333496 269.169403,649.240112 269.266205,644.742065 
	C269.394104,638.798767 270.064392,637.832886 275.623840,637.831543 
	C291.069336,637.827759 306.514862,637.889709 322.397766,638.021973 
z"/>
<path fill="#09131F" opacity="1.000000" stroke="none" 
	d="
M436.794922,601.411926 
	C435.333252,602.015747 433.892181,602.210449 432.153381,602.504150 
	C432.418518,601.518066 432.775116,599.795227 433.602325,599.527710 
	C434.428070,599.260681 435.725128,600.451233 436.794922,601.411926 
z"/>
<path fill="#09131F" opacity="1.000000" stroke="none" 
	d="
M431.219849,602.691162 
	C431.421204,604.096069 431.252777,605.322937 430.979797,606.845825 
	C429.973633,606.267090 429.072052,605.392334 428.170471,604.517578 
	C429.063660,603.849426 429.956879,603.181274 431.219849,602.691162 
z"/>
<path fill="#101A27" opacity="1.000000" stroke="none" 
	d="
M404.933380,605.656738 
	C402.846588,605.138733 400.691650,604.281982 398.269775,603.207764 
	C400.290314,603.766235 402.577789,604.542053 404.933380,605.656738 
z"/>
<path fill="#101A27" opacity="1.000000" stroke="none" 
	d="
M379.877563,600.916443 
	C379.249573,601.386414 378.437836,601.605408 377.309875,601.769043 
	C377.893677,601.364319 378.793732,601.014893 379.877563,600.916443 
z"/>
<path fill="#101A27" opacity="1.000000" stroke="none" 
	d="
M409.904236,608.744751 
	C409.042450,608.595764 408.121155,608.093750 407.027649,607.323730 
	C407.851898,607.501038 408.848297,607.946350 409.904236,608.744751 
z"/>
<path fill="#101A27" opacity="1.000000" stroke="none" 
	d="
M373.931122,602.000000 
	C373.583405,602.479675 373.078918,602.724548 372.286316,602.932861 
	C372.590302,602.519287 373.182312,602.142273 373.931122,602.000000 
z"/>
<path fill="#09131F" opacity="1.000000" stroke="none" 
	d="
M825.914124,671.668030 
	C824.280518,672.093384 822.559570,672.158813 820.418701,672.121826 
	C821.571228,668.748962 823.637329,669.523376 825.914124,671.668030 
z"/>
<path fill="#0D1724" opacity="1.000000" stroke="none" 
	d="
M618.605835,663.366577 
	C610.049377,653.355774 608.626465,642.397217 613.709900,630.931030 
	C618.559998,619.991150 627.615540,614.501770 639.519165,614.484192 
	C651.480469,614.466553 660.719727,619.703796 666.314697,630.500671 
	C672.784851,642.986206 668.902283,658.621094 657.417664,667.125610 
	C645.446899,675.990173 630.184265,674.606812 618.605835,663.366577 
z"/>
<path fill="#0D1724" opacity="1.000000" stroke="none" 
	d="
M355.626221,641.203735 
	C357.862152,624.640930 370.024109,613.975220 385.586731,614.519165 
	C400.825012,615.051697 413.076019,626.294678 414.081696,640.669495 
	C415.213165,656.841797 405.106903,670.007568 389.551697,672.625488 
	C370.941010,675.757629 354.827240,661.073059 355.626221,641.203735 
z"/>
<path fill="#0B1523" opacity="1.000000" stroke="none" 
	d="
M520.792969,519.466553 
	C515.159485,520.799683 510.317139,520.114441 506.695831,515.462830 
	C503.506989,511.366547 503.329895,505.960297 506.232849,501.558777 
	C509.288025,496.926575 513.867188,495.406982 520.534607,496.987396 
	C530.482300,504.312500 530.527466,512.485413 520.792969,519.466553 
z"/>
<path fill="#0B1523" opacity="1.000000" stroke="none" 
	d="
M428.287750,474.849945 
	C424.719910,474.950134 421.188019,475.751251 418.674500,472.113464 
	C416.690247,468.125244 413.418732,467.747192 409.787262,467.984650 
	C407.837708,468.112122 405.873016,468.007721 403.445892,467.562866 
	C402.286469,465.066040 401.596283,463.014282 400.906097,460.962524 
	C400.848083,460.536499 400.790039,460.110504 401.102417,459.064880 
	C401.279816,451.616119 401.086884,444.786926 400.893921,437.957733 
	C406.774963,435.223206 416.339203,436.496613 420.646851,440.586914 
	C422.194458,442.056396 423.743530,443.524231 425.594543,445.158569 
	C431.044250,450.394104 436.191376,455.463898 441.752350,460.941345 
	C437.182007,465.718262 432.884216,470.210297 428.287750,474.849945 
z"/>
<path fill="#0B1523" opacity="1.000000" stroke="none" 
	d="
M631.450562,365.894562 
	C630.056030,355.117065 635.073303,348.712341 644.120667,349.938751 
	C646.930725,350.319641 649.459717,352.774170 652.370178,354.549469 
	C653.098755,356.569885 653.784241,358.293457 654.011536,360.075470 
	C654.736389,365.760284 651.647034,370.559357 646.246094,372.435425 
	C640.676025,374.370209 635.614746,372.179443 631.450562,365.894562 
z"/>
<path fill="#0D1724" opacity="1.000000" stroke="none" 
	d="
M396.117126,507.509735 
	C395.819977,510.682098 396.013885,513.673279 394.968994,516.139709 
	C392.896149,521.032532 387.081360,523.723267 382.173218,522.750061 
	C376.974609,521.719238 372.889496,516.955200 372.470062,511.434296 
	C372.083862,506.350586 375.415527,501.029083 380.175110,499.127502 
	C384.875153,497.249634 390.832245,498.907288 394.026123,503.137543 
	C394.904572,504.301056 395.384949,505.765106 396.117126,507.509735 
z"/>
<path fill="#101A27" opacity="1.000000" stroke="none" 
	d="
M400.728333,438.330811 
	C401.086884,444.786926 401.279816,451.616119 401.177612,458.748840 
	C400.775879,452.269562 400.669281,445.486694 400.728333,438.330811 
z"/>
<path fill="#101A27" opacity="1.000000" stroke="none" 
	d="
M400.773285,461.294891 
	C401.596283,463.014282 402.286469,465.066040 402.989075,467.492493 
	C398.597382,467.155792 401.215240,463.787537 400.773285,461.294891 
z"/>
</svg>